<?xml version="1.0" encoding="utf-8"?>
<!-- Generator: Adobe Illustrator 22.1.0, SVG Export Plug-In . SVG Version: 6.00 Build 0)  -->
<svg version="1.1" id="Layer_1" xmlns="http://www.w3.org/2000/svg" xmlns:xlink="http://www.w3.org/1999/xlink" x="0px" y="0px"
	 viewBox="0 0 440 512" style="enable-background:new 0 0 440 512;" xml:space="preserve">
<g>
	<path d="M344,305.5c-17.5,31.6-57.4,54.5-96,54.5c-56.6,0-104-47.4-104-104s47.4-104,104-104c38.6,0,78.5,22.9,96,54.5
		c13.7-50.9,41.7-93.3,87-117.8C385.7,39.1,320.5,8,248,8C111,8,0,119,0,256s111,248,248,248c72.5,0,137.7-31.1,183-80.7
		C385.7,398.8,357.7,356.4,344,305.5z"/>
	<g>
		<rect x="198.5" y="221" width="12" height="70"/>
	</g>
	<g>
		<rect x="169.5" y="250" width="70" height="12"/>
	</g>
	<g>
		<rect x="249.5" y="250" width="70" height="12"/>
	</g>
	<g>
		<rect x="278.5" y="221" width="12" height="70"/>
	</g>
</g>
</svg>
