<?xml version="1.0" encoding="UTF-8" standalone="no"?>
<!-- Generator: Adobe Illustrator 22.1.0, SVG Export Plug-In . SVG Version: 6.00 Build 0)  -->

<svg
   xmlns:dc="http://purl.org/dc/elements/1.1/"
   xmlns:cc="http://creativecommons.org/ns#"
   xmlns:rdf="http://www.w3.org/1999/02/22-rdf-syntax-ns#"
   xmlns:svg="http://www.w3.org/2000/svg"
   xmlns="http://www.w3.org/2000/svg"
   xmlns:sodipodi="http://sodipodi.sourceforge.net/DTD/sodipodi-0.dtd"
   xmlns:inkscape="http://www.inkscape.org/namespaces/inkscape"
   version="1.1"
   id="Layer_1"
   x="0px"
   y="0px"
   viewBox="0 0 2500 2438"
   style="enable-background:new 0 0 2500 2438;"
   xml:space="preserve"
   sodipodi:docname="adobe-illustrator-cc.svg"
   inkscape:version="0.92.0 r15299"><metadata
     id="metadata18"><rdf:RDF><cc:Work
         rdf:about=""><dc:format>image/svg+xml</dc:format><dc:type
           rdf:resource="http://purl.org/dc/dcmitype/StillImage" /></cc:Work></rdf:RDF></metadata><defs
     id="defs16" /><sodipodi:namedview
     pagecolor="#ffffff"
     bordercolor="#666666"
     borderopacity="1"
     objecttolerance="10"
     gridtolerance="10"
     guidetolerance="10"
     inkscape:pageopacity="0"
     inkscape:pageshadow="2"
     inkscape:window-width="1920"
     inkscape:window-height="1017"
     id="namedview14"
     showgrid="false"
     inkscape:zoom="0.096800656"
     inkscape:cx="1250"
     inkscape:cy="1219"
     inkscape:window-x="-8"
     inkscape:window-y="-8"
     inkscape:window-maximized="1"
     inkscape:current-layer="Layer_1" /><style
     type="text/css"
     id="style2">
	.st0{fill:url(#SVGID_1_);}
	.st1{fill:#FF7F18;}
</style><radialGradient
     id="SVGID_1_"
     cx="767.8946"
     cy="1310.3362"
     r="0.76"
     gradientTransform="matrix(2291.6716 0 0 -2218.7549 -1758903.25 2907918.5)"
     gradientUnits="userSpaceOnUse"><stop
       offset="0"
       style="stop-color:#423325;stop-opacity:0.98"
       id="stop4" /><stop
       offset="1"
       style="stop-color:#1C0A00"
       id="stop6" /></radialGradient><path
     class="st0"
     d="M104.2,104.4h2291.7v2229.2H104.2V104.4z"
     id="path9"
     style="fill:#ffffff;fill-opacity:0.98000002" /><path
     class="st1"
     d="M104.2,104.4h2291.7v2229.2H104.2V104.4z M0,2437.8h2500V0.2H0V2437.8z M1637.5,869c0-8.3,3.1-12.5,12.5-12.5  h163.5c8.3,0,12.5,3.1,12.5,12.5v821.9c0,8.3-2.1,12.5-12.5,12.5h-161.5c-10.4,0-13.5-5.2-13.5-13.5V869L1637.5,869L1637.5,869z   M1626,632.5c0-66.7,46.9-106.2,106.3-106.2c63.5,0,106.2,42.7,106.2,106.2c0,68.7-44.8,106.2-108.3,106.2  C1669.8,738.8,1626,701.3,1626,632.5z M1157.3,1211.7c-29.2-115.6-97.9-367.7-124-489.6h-2.1c-21.9,121.9-77.1,328.1-120.8,489.6  H1157.3z M867.7,1380.5L785.4,1693c-2.1,8.3-5.2,10.4-15.6,10.4H616.7c-10.4,0-12.5-3.1-10.4-15.6L902.1,652.3  c5.2-18.7,8.3-35.4,10.4-86.5c0-7.3,3.1-10.4,8.3-10.4h218.8c7.3,0,10.4,2.1,12.5,10.4l331.2,1124c2.1,8.3,0,13.5-8.3,13.5h-172.9  c-8.3,0-13.5-2.1-15.6-9.4l-85.4-313.5H867.7L867.7,1380.5z"
     id="path11"
     style="fill:#000000;fill-opacity:1" /></svg>