<?xml version="1.0" encoding="UTF-8" standalone="no"?>
<!-- Generator: Adobe Illustrator 22.1.0, SVG Export Plug-In . SVG Version: 6.00 Build 0)  -->

<svg
   xmlns:dc="http://purl.org/dc/elements/1.1/"
   xmlns:cc="http://creativecommons.org/ns#"
   xmlns:rdf="http://www.w3.org/1999/02/22-rdf-syntax-ns#"
   xmlns:svg="http://www.w3.org/2000/svg"
   xmlns="http://www.w3.org/2000/svg"
   xmlns:sodipodi="http://sodipodi.sourceforge.net/DTD/sodipodi-0.dtd"
   xmlns:inkscape="http://www.inkscape.org/namespaces/inkscape"
   version="1.1"
   id="Layer_1"
   x="0px"
   y="0px"
   viewBox="0 0 440 512"
   style="enable-background:new 0 0 440 512;"
   xml:space="preserve"
   sodipodi:docname="c++.svg"
   inkscape:version="0.92.0 r15299"><metadata
     id="metadata27"><rdf:RDF><cc:Work
         rdf:about=""><dc:format>image/svg+xml</dc:format><dc:type
           rdf:resource="http://purl.org/dc/dcmitype/StillImage" /><dc:title></dc:title></cc:Work></rdf:RDF></metadata><defs
     id="defs25" /><sodipodi:namedview
     pagecolor="#ffffff"
     bordercolor="#666666"
     borderopacity="1"
     objecttolerance="10"
     gridtolerance="10"
     guidetolerance="10"
     inkscape:pageopacity="0"
     inkscape:pageshadow="2"
     inkscape:window-width="1920"
     inkscape:window-height="1017"
     id="namedview23"
     showgrid="false"
     inkscape:zoom="0.4609375"
     inkscape:cx="220"
     inkscape:cy="256"
     inkscape:window-x="-8"
     inkscape:window-y="-8"
     inkscape:window-maximized="1"
     inkscape:current-layer="Layer_1" /><g
     id="g20"><path
       d="M344,305.5c-17.5,31.6-57.4,54.5-96,54.5c-56.6,0-104-47.4-104-104s47.4-104,104-104c38.6,0,78.5,22.9,96,54.5   c13.7-50.9,41.7-93.3,87-117.8C385.7,39.1,320.5,8,248,8C111,8,0,119,0,256s111,248,248,248c72.5,0,137.7-31.1,183-80.7   C385.7,398.8,357.7,356.4,344,305.5z"
       id="path2" /><g
       id="g6"><rect
         x="198.5"
         y="221"
         width="12"
         height="70"
         id="rect4" /></g><g
       id="g10"><rect
         x="169.5"
         y="250"
         width="70"
         height="12"
         id="rect8" /></g><g
       id="g14"><rect
         x="249.5"
         y="250"
         width="70"
         height="12"
         id="rect12" /></g><g
       id="g18"><rect
         x="278.5"
         y="221"
         width="12"
         height="70"
         id="rect16" /></g></g></svg>